<?xml version="1.0" encoding="iso-8859-1"?>
<!-- Generator: Adobe Illustrator 19.0.0, SVG Export Plug-In . SVG Version: 6.00 Build 0)  -->
<svg version="1.1" id="Layer_1" xmlns="http://www.w3.org/2000/svg" xmlns:xlink="http://www.w3.org/1999/xlink" x="0px" y="0px"
	 viewBox="0 0 512 512" style="enable-background:new 0 0 512 512;" xml:space="preserve">
<g>
	<g>
		<path d="M294.4,54.656v25.882C389.018,98.577,460.8,181.811,460.8,281.6c0,112.93-91.87,204.8-204.8,204.8S51.2,394.53,51.2,281.6
			c0-99.789,71.782-183.023,166.4-201.062V54.656C108.672,72.969,25.6,167.467,25.6,281.6C25.6,408.849,128.751,512,256,512
			s230.4-103.151,230.4-230.4C486.4,167.467,403.328,72.969,294.4,54.656z"/>
	</g>
</g>
<g>
	<g>
		<path d="M256,0c-7.074,0-12.8,5.726-12.8,12.8v204.8c0,7.074,5.726,12.8,12.8,12.8c7.074,0,12.8-5.726,12.8-12.8V12.8
			C268.8,5.726,263.074,0,256,0z"/>
	</g>
</g>
<g>
</g>
<g>
</g>
<g>
</g>
<g>
</g>
<g>
</g>
<g>
</g>
<g>
</g>
<g>
</g>
<g>
</g>
<g>
</g>
<g>
</g>
<g>
</g>
<g>
</g>
<g>
</g>
<g>
</g>
</svg>
